<svg width="111" height="31" viewBox="0 0 111 31" fill="none" xmlns="http://www.w3.org/2000/svg">
<path d="M45.576 17.296L43.56 19.816V25H40.872V8.248H43.56V16.264H43.68L45.72 13.48L49.824 8.248H52.92L47.4 15.304L53.136 25H50.064L45.576 17.296ZM55.2146 22.888H58.5026V14.728H55.2146V12.616H61.1186V15.904H61.2626C61.3746 15.472 61.5346 15.056 61.7426 14.656C61.9506 14.256 62.2146 13.912 62.5346 13.624C62.8546 13.32 63.2466 13.08 63.7106 12.904C64.1746 12.712 64.7186 12.616 65.3426 12.616H66.8306V15.112H64.3826C63.4226 15.112 62.6386 15.4 62.0306 15.976C61.4226 16.536 61.1186 17.296 61.1186 18.256V22.888H65.6066V25H55.2146V22.888ZM75.2453 25.288C74.3013 25.288 73.4533 25.136 72.7013 24.832C71.9493 24.528 71.3173 24.096 70.8053 23.536C70.2933 22.976 69.9013 22.304 69.6293 21.52C69.3573 20.72 69.2213 19.824 69.2213 18.832C69.2213 17.84 69.3573 16.944 69.6293 16.144C69.9173 15.344 70.3093 14.664 70.8053 14.104C71.3173 13.528 71.9333 13.088 72.6533 12.784C73.3733 12.48 74.1733 12.328 75.0533 12.328C75.9173 12.328 76.7013 12.48 77.4053 12.784C78.1093 13.072 78.7093 13.488 79.2053 14.032C79.7013 14.576 80.0773 15.224 80.3333 15.976C80.6053 16.728 80.7413 17.56 80.7413 18.472V19.456H71.8613V19.864C71.8613 20.84 72.1653 21.64 72.7733 22.264C73.3813 22.872 74.2213 23.176 75.2933 23.176C76.0933 23.176 76.7733 23.008 77.3333 22.672C77.9093 22.32 78.3733 21.856 78.7253 21.28L80.3573 22.72C79.9413 23.44 79.3013 24.048 78.4373 24.544C77.5893 25.04 76.5253 25.288 75.2453 25.288ZM75.0533 14.32C74.5893 14.32 74.1573 14.4 73.7573 14.56C73.3733 14.72 73.0373 14.952 72.7493 15.256C72.4773 15.544 72.2613 15.888 72.1013 16.288C71.9413 16.688 71.8613 17.128 71.8613 17.608V17.776H78.0773V17.536C78.0773 16.56 77.7973 15.784 77.2373 15.208C76.6933 14.616 75.9653 14.32 75.0533 14.32ZM89.6359 25.288C88.6919 25.288 87.8439 25.136 87.0919 24.832C86.3399 24.528 85.7079 24.096 85.1959 23.536C84.6839 22.976 84.2919 22.304 84.0199 21.52C83.7479 20.72 83.6119 19.824 83.6119 18.832C83.6119 17.84 83.7479 16.944 84.0199 16.144C84.3079 15.344 84.6999 14.664 85.1959 14.104C85.7079 13.528 86.3239 13.088 87.0439 12.784C87.7639 12.48 88.5639 12.328 89.4439 12.328C90.3079 12.328 91.0919 12.48 91.7959 12.784C92.4999 13.072 93.0999 13.488 93.5959 14.032C94.0919 14.576 94.4679 15.224 94.7239 15.976C94.9959 16.728 95.1319 17.56 95.1319 18.472V19.456H86.2519V19.864C86.2519 20.84 86.5559 21.64 87.1639 22.264C87.7719 22.872 88.6119 23.176 89.6839 23.176C90.4839 23.176 91.1639 23.008 91.7239 22.672C92.2999 22.32 92.7639 21.856 93.1159 21.28L94.7479 22.72C94.3319 23.44 93.6919 24.048 92.8279 24.544C91.9799 25.04 90.9159 25.288 89.6359 25.288ZM89.4439 14.32C88.9799 14.32 88.5479 14.4 88.1479 14.56C87.7639 14.72 87.4279 14.952 87.1399 15.256C86.8679 15.544 86.6519 15.888 86.4919 16.288C86.3319 16.688 86.2519 17.128 86.2519 17.608V17.776H92.4679V17.536C92.4679 16.56 92.1879 15.784 91.6279 15.208C91.0839 14.616 90.3559 14.32 89.4439 14.32ZM106.451 22.888H106.307C105.939 23.64 105.451 24.232 104.843 24.664C104.235 25.08 103.475 25.288 102.562 25.288C101.107 25.288 99.9465 24.744 99.0825 23.656C98.2185 22.568 97.7865 20.952 97.7865 18.808C97.7865 16.664 98.2185 15.048 99.0825 13.96C99.9465 12.872 101.107 12.328 102.562 12.328C103.475 12.328 104.235 12.544 104.843 12.976C105.451 13.392 105.939 13.976 106.307 14.728H106.451V7.24H109.067V25H106.451V22.888ZM103.643 23.152C104.027 23.152 104.387 23.104 104.723 23.008C105.059 22.912 105.355 22.768 105.611 22.576C105.867 22.384 106.067 22.152 106.211 21.88C106.371 21.592 106.451 21.256 106.451 20.872V16.744C106.451 16.36 106.371 16.032 106.211 15.76C106.067 15.472 105.867 15.232 105.611 15.04C105.355 14.848 105.059 14.704 104.723 14.608C104.387 14.512 104.027 14.464 103.643 14.464C102.651 14.464 101.883 14.768 101.339 15.376C100.811 15.984 100.547 16.792 100.547 17.8V19.816C100.547 20.824 100.811 21.632 101.339 22.24C101.883 22.848 102.651 23.152 103.643 23.152Z" fill="#13390D"/>
<rect width="30" height="30" rx="6" fill="#13390D"/>
<path d="M9.70947 21.6781C9.15719 21.6781 8.70947 21.2304 8.70947 20.6781V9.22583C8.70947 8.67355 9.15719 8.22583 9.70947 8.22583H10.7611C11.3134 8.22583 11.7611 8.67355 11.7611 9.22583V20.6781C11.7611 21.2304 11.3134 21.6781 10.7611 21.6781H9.70947ZM12.7492 15.4557C12.67 15.2417 12.6664 15.007 12.739 14.7906L14.7137 8.90761C14.8505 8.50029 15.2321 8.22583 15.6618 8.22583H16.5646C17.2468 8.22583 17.7288 8.89397 17.5135 9.54137L15.7666 14.7949C15.6955 15.0086 15.6987 15.2401 15.7756 15.4519L17.5502 20.3367C17.7871 20.9888 17.3041 21.6781 16.6103 21.6781H15.7471C15.3286 21.6781 14.9544 21.4175 14.8092 21.0251L12.7492 15.4557Z" fill="white"/>
<path d="M19.0114 20.3329C19.0114 19.7564 19.2928 19.3272 19.8555 19.0453C20.1008 18.93 20.3605 18.8724 20.6347 18.8724C21.2839 18.8724 21.7601 19.1222 22.0631 19.6219C22.1929 19.8396 22.2579 20.0767 22.2579 20.3329C22.2579 20.9222 21.9693 21.345 21.3921 21.6013C21.1469 21.7166 20.8944 21.7742 20.6347 21.7742C19.9709 21.7742 19.4948 21.518 19.2062 21.0055C19.0764 20.7877 19.0114 20.5635 19.0114 20.3329Z" fill="white"/>
</svg>
